<svg width="1600" height="900" viewBox="0 0 1600 900" fill="none" xmlns="http://www.w3.org/2000/svg"><defs><radialGradient id="g0" cx="0" cy="0" r="1" gradientUnits="userSpaceOnUse" gradientTransform="translate(903 703) rotate(17) scale(569 477)"><stop stop-color="#58C9FF" stop-opacity="0.5"/><stop offset="1" stop-color="#58C9FF" stop-opacity="0"/></radialGradient>
<radialGradient id="g1" cx="0" cy="0" r="1" gradientUnits="userSpaceOnUse" gradientTransform="translate(1127 397) rotate(-5) scale(753 425)"><stop stop-color="#FFC95A" stop-opacity="0.35"/><stop offset="1" stop-color="#FFC95A" stop-opacity="0"/></radialGradient>
<radialGradient id="g2" cx="0" cy="0" r="1" gradientUnits="userSpaceOnUse" gradientTransform="translate(924 507) rotate(-47) scale(859 594)"><stop stop-color="#FFC95A" stop-opacity="0.45"/><stop offset="1" stop-color="#FFC95A" stop-opacity="0"/></radialGradient></defs><rect width="1600" height="900" fill="url(#g0)"/>
<rect width="1600" height="900" fill="url(#g1)"/>
<rect width="1600" height="900" fill="url(#g2)"/><g transform="translate(1140,468)" fill="none" stroke="#132238" stroke-opacity="0.16" stroke-width="12" stroke-linecap="round" stroke-linejoin="round"><line x1="-160" y1="-80" x2="0" y2="-170"/><line x1="-160" y1="-80" x2="0" y2="50"/><line x1="0" y1="-170" x2="170" y2="-40"/><line x1="0" y1="50" x2="170" y2="-40"/><line x1="0" y1="50" x2="170" y2="160"/><line x1="170" y1="-40" x2="170" y2="160"/><line x1="-160" y1="-80" x2="-170" y2="120"/><line x1="0" y1="50" x2="-170" y2="120"/></g><g transform="translate(1140,468)" fill="none" stroke="#132238" stroke-opacity="0.16" stroke-width="12" stroke-linecap="round" stroke-linejoin="round"><circle cx="-160" cy="-80" r="24"/><circle cx="0" cy="-170" r="24"/><circle cx="0" cy="50" r="24"/><circle cx="170" cy="-40" r="24"/><circle cx="170" cy="160" r="24"/><circle cx="-170" cy="120" r="24"/></g></svg>
